<?xml version="1.0" encoding="UTF-8" standalone="no"?>
<!DOCTYPE svg PUBLIC "-//W3C//DTD SVG 1.1//EN"
 "http://www.w3.org/Graphics/SVG/1.1/DTD/svg11.dtd">
<!-- Generated by graphviz version 2.26.3 (20100126.1600)
 -->
<!-- Title: G Pages: 1 -->
<svg width="585pt" height="2362pt"
 viewBox="0.00 0.00 585.00 2362.00" xmlns="http://www.w3.org/2000/svg" xmlns:xlink="http://www.w3.org/1999/xlink">
<g id="graph1" class="graph" transform="scale(1 1) rotate(0) translate(4 2358)">
<title>G</title>
<polygon fill="white" stroke="white" points="-4,5 -4,-2358 582,-2358 582,5 -4,5"/>
<g id="graph2" class="cluster"><title>cluster_Global</title>
<polyline fill="none" stroke="gray" points="20,-44 557,-44 "/>
<path fill="none" stroke="gray" d="M557,-44C563,-44 569,-50 569,-56"/>
<polyline fill="none" stroke="gray" points="569,-56 569,-2334 "/>
<path fill="none" stroke="gray" d="M569,-2334C569,-2340 563,-2346 557,-2346"/>
<polyline fill="none" stroke="gray" points="557,-2346 20,-2346 "/>
<path fill="none" stroke="gray" d="M20,-2346C14,-2346 8,-2340 8,-2334"/>
<polyline fill="none" stroke="gray" points="8,-2334 8,-56 "/>
<path fill="none" stroke="gray" d="M8,-56C8,-50 14,-44 20,-44"/>
<text text-anchor="middle" x="288.5" y="-2332.1" font-family="Times Roman,serif" font-size="11.00" fill="gray">Global</text>
</g>
<g id="graph3" class="cluster"><title>cluster_\Nf</title>
<polyline fill="none" stroke="gray" points="28,-52 549,-52 "/>
<path fill="none" stroke="gray" d="M549,-52C555,-52 561,-58 561,-64"/>
<polyline fill="none" stroke="gray" points="561,-64 561,-2304 "/>
<path fill="none" stroke="gray" d="M561,-2304C561,-2310 555,-2316 549,-2316"/>
<polyline fill="none" stroke="gray" points="549,-2316 28,-2316 "/>
<path fill="none" stroke="gray" d="M28,-2316C22,-2316 16,-2310 16,-2304"/>
<polyline fill="none" stroke="gray" points="16,-2304 16,-64 "/>
<path fill="none" stroke="gray" d="M16,-64C16,-58 22,-52 28,-52"/>
<text text-anchor="middle" x="288.5" y="-2302.1" font-family="Times Roman,serif" font-size="11.00" fill="gray">Nf</text>
</g>
<g id="graph4" class="cluster"><title>cluster_\Nf\Front</title>
<polyline fill="none" stroke="gray" points="207,-1938 516,-1938 "/>
<path fill="none" stroke="gray" d="M516,-1938C522,-1938 528,-1944 528,-1950"/>
<polyline fill="none" stroke="gray" points="528,-1950 528,-2274 "/>
<path fill="none" stroke="gray" d="M528,-2274C528,-2280 522,-2286 516,-2286"/>
<polyline fill="none" stroke="gray" points="516,-2286 207,-2286 "/>
<path fill="none" stroke="gray" d="M207,-2286C201,-2286 195,-2280 195,-2274"/>
<polyline fill="none" stroke="gray" points="195,-2274 195,-1950 "/>
<path fill="none" stroke="gray" d="M195,-1950C195,-1944 201,-1938 207,-1938"/>
<text text-anchor="middle" x="361.5" y="-2272.1" font-family="Times Roman,serif" font-size="11.00" fill="gray">Front</text>
</g>
<g id="graph5" class="cluster"><title>cluster_\Nf\Front\Request</title>
<polyline fill="none" stroke="gray" points="219,-2128 501,-2128 "/>
<path fill="none" stroke="gray" d="M501,-2128C507,-2128 513,-2134 513,-2140"/>
<polyline fill="none" stroke="gray" points="513,-2140 513,-2244 "/>
<path fill="none" stroke="gray" d="M513,-2244C513,-2250 507,-2256 501,-2256"/>
<polyline fill="none" stroke="gray" points="501,-2256 219,-2256 "/>
<path fill="none" stroke="gray" d="M219,-2256C213,-2256 207,-2250 207,-2244"/>
<polyline fill="none" stroke="gray" points="207,-2244 207,-2140 "/>
<path fill="none" stroke="gray" d="M207,-2140C207,-2134 213,-2128 219,-2128"/>
<text text-anchor="middle" x="360" y="-2242.1" font-family="Times Roman,serif" font-size="11.00" fill="gray">Request</text>
</g>
<g id="graph6" class="cluster"><title>cluster_\Nf\Front\Response</title>
<polyline fill="none" stroke="gray" points="215,-1992 501,-1992 "/>
<path fill="none" stroke="gray" d="M501,-1992C507,-1992 513,-1998 513,-2004"/>
<polyline fill="none" stroke="gray" points="513,-2004 513,-2108 "/>
<path fill="none" stroke="gray" d="M513,-2108C513,-2114 507,-2120 501,-2120"/>
<polyline fill="none" stroke="gray" points="501,-2120 215,-2120 "/>
<path fill="none" stroke="gray" d="M215,-2120C209,-2120 203,-2114 203,-2108"/>
<polyline fill="none" stroke="gray" points="203,-2108 203,-2004 "/>
<path fill="none" stroke="gray" d="M203,-2004C203,-1998 209,-1992 215,-1992"/>
<text text-anchor="middle" x="358" y="-2106.1" font-family="Times Roman,serif" font-size="11.00" fill="gray">Response</text>
</g>
<g id="graph7" class="cluster"><title>cluster_\Nf\Session</title>
<polyline fill="none" stroke="gray" points="443,-782 513,-782 "/>
<path fill="none" stroke="gray" d="M513,-782C519,-782 525,-788 525,-794"/>
<polyline fill="none" stroke="gray" points="525,-794 525,-898 "/>
<path fill="none" stroke="gray" d="M525,-898C525,-904 519,-910 513,-910"/>
<polyline fill="none" stroke="gray" points="513,-910 443,-910 "/>
<path fill="none" stroke="gray" d="M443,-910C437,-910 431,-904 431,-898"/>
<polyline fill="none" stroke="gray" points="431,-898 431,-794 "/>
<path fill="none" stroke="gray" d="M431,-794C431,-788 437,-782 443,-782"/>
<text text-anchor="middle" x="478" y="-896.1" font-family="Times Roman,serif" font-size="11.00" fill="gray">Session</text>
</g>
<g id="graph8" class="cluster"><title>cluster_\Nf\Db</title>
<polyline fill="none" stroke="gray" points="210,-1646 516,-1646 "/>
<path fill="none" stroke="gray" d="M516,-1646C522,-1646 528,-1652 528,-1658"/>
<polyline fill="none" stroke="gray" points="528,-1658 528,-1874 "/>
<path fill="none" stroke="gray" d="M528,-1874C528,-1880 522,-1886 516,-1886"/>
<polyline fill="none" stroke="gray" points="516,-1886 210,-1886 "/>
<path fill="none" stroke="gray" d="M210,-1886C204,-1886 198,-1880 198,-1874"/>
<polyline fill="none" stroke="gray" points="198,-1874 198,-1658 "/>
<path fill="none" stroke="gray" d="M198,-1658C198,-1652 204,-1646 210,-1646"/>
<text text-anchor="middle" x="363" y="-1872.1" font-family="Times Roman,serif" font-size="11.00" fill="gray">Db</text>
</g>
<g id="graph9" class="cluster"><title>cluster_\Nf\Db\Adapter</title>
<polyline fill="none" stroke="gray" points="218,-1782 503,-1782 "/>
<path fill="none" stroke="gray" d="M503,-1782C509,-1782 515,-1788 515,-1794"/>
<polyline fill="none" stroke="gray" points="515,-1794 515,-1844 "/>
<path fill="none" stroke="gray" d="M515,-1844C515,-1850 509,-1856 503,-1856"/>
<polyline fill="none" stroke="gray" points="503,-1856 218,-1856 "/>
<path fill="none" stroke="gray" d="M218,-1856C212,-1856 206,-1850 206,-1844"/>
<polyline fill="none" stroke="gray" points="206,-1844 206,-1794 "/>
<path fill="none" stroke="gray" d="M206,-1794C206,-1788 212,-1782 218,-1782"/>
<text text-anchor="middle" x="360.5" y="-1842.1" font-family="Times Roman,serif" font-size="11.00" fill="gray">Adapter</text>
</g>
<g id="graph10" class="cluster"><title>cluster_\Nf\Db\Resource</title>
<polyline fill="none" stroke="gray" points="453,-1700 503,-1700 "/>
<path fill="none" stroke="gray" d="M503,-1700C509,-1700 515,-1706 515,-1712"/>
<polyline fill="none" stroke="gray" points="515,-1712 515,-1762 "/>
<path fill="none" stroke="gray" d="M515,-1762C515,-1768 509,-1774 503,-1774"/>
<polyline fill="none" stroke="gray" points="503,-1774 453,-1774 "/>
<path fill="none" stroke="gray" d="M453,-1774C447,-1774 441,-1768 441,-1762"/>
<polyline fill="none" stroke="gray" points="441,-1762 441,-1712 "/>
<path fill="none" stroke="gray" d="M441,-1712C441,-1706 447,-1700 453,-1700"/>
<text text-anchor="middle" x="478" y="-1760.1" font-family="Times Roman,serif" font-size="11.00" fill="gray">Resource</text>
</g>
<g id="graph11" class="cluster"><title>cluster_\Nf\View</title>
<polyline fill="none" stroke="gray" points="453,-646 503,-646 "/>
<path fill="none" stroke="gray" d="M503,-646C509,-646 515,-652 515,-658"/>
<polyline fill="none" stroke="gray" points="515,-658 515,-762 "/>
<path fill="none" stroke="gray" d="M515,-762C515,-768 509,-774 503,-774"/>
<polyline fill="none" stroke="gray" points="503,-774 453,-774 "/>
<path fill="none" stroke="gray" d="M453,-774C447,-774 441,-768 441,-762"/>
<polyline fill="none" stroke="gray" points="441,-762 441,-658 "/>
<path fill="none" stroke="gray" d="M441,-658C441,-652 447,-646 453,-646"/>
<text text-anchor="middle" x="478" y="-760.1" font-family="Times Roman,serif" font-size="11.00" fill="gray">View</text>
</g>
<g id="graph12" class="cluster"><title>cluster_\Nf\Error</title>
<polyline fill="none" stroke="gray" points="243,-1054 541,-1054 "/>
<path fill="none" stroke="gray" d="M541,-1054C547,-1054 553,-1060 553,-1066"/>
<polyline fill="none" stroke="gray" points="553,-1066 553,-1582 "/>
<path fill="none" stroke="gray" d="M553,-1582C553,-1588 547,-1594 541,-1594"/>
<polyline fill="none" stroke="gray" points="541,-1594 243,-1594 "/>
<path fill="none" stroke="gray" d="M243,-1594C237,-1594 231,-1588 231,-1582"/>
<polyline fill="none" stroke="gray" points="231,-1582 231,-1066 "/>
<path fill="none" stroke="gray" d="M231,-1066C231,-1060 237,-1054 243,-1054"/>
<text text-anchor="middle" x="392" y="-1580.1" font-family="Times Roman,serif" font-size="11.00" fill="gray">Error</text>
</g>
<g id="graph13" class="cluster"><title>cluster_\Nf\Error\Exception</title>
<polyline fill="none" stroke="gray" points="251,-1190 533,-1190 "/>
<path fill="none" stroke="gray" d="M533,-1190C539,-1190 545,-1196 545,-1202"/>
<polyline fill="none" stroke="gray" points="545,-1202 545,-1552 "/>
<path fill="none" stroke="gray" d="M545,-1552C545,-1558 539,-1564 533,-1564"/>
<polyline fill="none" stroke="gray" points="533,-1564 251,-1564 "/>
<path fill="none" stroke="gray" d="M251,-1564C245,-1564 239,-1558 239,-1552"/>
<polyline fill="none" stroke="gray" points="239,-1552 239,-1202 "/>
<path fill="none" stroke="gray" d="M239,-1202C239,-1196 245,-1190 251,-1190"/>
<text text-anchor="middle" x="392" y="-1550.1" font-family="Times Roman,serif" font-size="11.00" fill="gray">Exception</text>
</g>
<g id="graph14" class="cluster"><title>cluster_\Nf\Error\Exception\Http</title>
<polyline fill="none" stroke="gray" points="433,-1244 523,-1244 "/>
<path fill="none" stroke="gray" d="M523,-1244C529,-1244 535,-1250 535,-1256"/>
<polyline fill="none" stroke="gray" points="535,-1256 535,-1522 "/>
<path fill="none" stroke="gray" d="M535,-1522C535,-1528 529,-1534 523,-1534"/>
<polyline fill="none" stroke="gray" points="523,-1534 433,-1534 "/>
<path fill="none" stroke="gray" d="M433,-1534C427,-1534 421,-1528 421,-1522"/>
<polyline fill="none" stroke="gray" points="421,-1522 421,-1256 "/>
<path fill="none" stroke="gray" d="M421,-1256C421,-1250 427,-1244 433,-1244"/>
<text text-anchor="middle" x="478" y="-1520.1" font-family="Times Roman,serif" font-size="11.00" fill="gray">Http</text>
</g>
<g id="graph15" class="cluster"><title>cluster_\Nf\Error\Logger</title>
<polyline fill="none" stroke="gray" points="455,-1108 501,-1108 "/>
<path fill="none" stroke="gray" d="M501,-1108C507,-1108 513,-1114 513,-1120"/>
<polyline fill="none" stroke="gray" points="513,-1120 513,-1170 "/>
<path fill="none" stroke="gray" d="M513,-1170C513,-1176 507,-1182 501,-1182"/>
<polyline fill="none" stroke="gray" points="501,-1182 455,-1182 "/>
<path fill="none" stroke="gray" d="M455,-1182C449,-1182 443,-1176 443,-1170"/>
<polyline fill="none" stroke="gray" points="443,-1170 443,-1120 "/>
<path fill="none" stroke="gray" d="M443,-1120C443,-1114 449,-1108 455,-1108"/>
<text text-anchor="middle" x="478" y="-1168.1" font-family="Times Roman,serif" font-size="11.00" fill="gray">Logger</text>
</g>
<g id="graph16" class="cluster"><title>cluster_\Nf\Cache</title>
<polyline fill="none" stroke="gray" points="222,-918 513,-918 "/>
<path fill="none" stroke="gray" d="M513,-918C519,-918 525,-924 525,-930"/>
<polyline fill="none" stroke="gray" points="525,-930 525,-1034 "/>
<path fill="none" stroke="gray" d="M525,-1034C525,-1040 519,-1046 513,-1046"/>
<polyline fill="none" stroke="gray" points="513,-1046 222,-1046 "/>
<path fill="none" stroke="gray" d="M222,-1046C216,-1046 210,-1040 210,-1034"/>
<polyline fill="none" stroke="gray" points="210,-1034 210,-930 "/>
<path fill="none" stroke="gray" d="M210,-930C210,-924 216,-918 222,-918"/>
<text text-anchor="middle" x="367.5" y="-1032.1" font-family="Times Roman,serif" font-size="11.00" fill="gray">Cache</text>
</g>
<!-- \\Nf\\Front\\Request\\Cli -->
<g id="node5" class="node"><title>\\Nf\\Front\\Request\\Cli</title>
<polygon fill="none" stroke="black" points="505,-2226 451,-2226 451,-2190 505,-2190 505,-2226"/>
<text text-anchor="middle" x="478" y="-2205.1" font-family="Courier,monospace" font-size="11.00">Cli</text>
</g>
<!-- \\Nf\\Front\\Request\\AbstractRequest -->
<g id="node6" class="node"><title>\\Nf\\Front\\Request\\AbstractRequest</title>
<polygon fill="none" stroke="black" points="333,-2199 215,-2199 215,-2163 333,-2163 333,-2199"/>
<text text-anchor="middle" x="274" y="-2178.1" font-family="Courier,monospace" font-size="11.00">AbstractRequest</text>
</g>
<!-- \\Nf\\Front\\Request\\Cli&#45;&gt;\\Nf\\Front\\Request\\AbstractRequest -->
<g id="edge17" class="edge"><title>\\Nf\\Front\\Request\\Cli&#45;&gt;\\Nf\\Front\\Request\\AbstractRequest</title>
<path fill="none" stroke="black" d="M450.91,-2204.41C423.567,-2200.8 380.218,-2195.06 343.275,-2190.17"/>
<polygon fill="none" stroke="black" points="343.417,-2186.66 333.044,-2188.81 342.498,-2193.6 343.417,-2186.66"/>
</g>
<!-- \\Nf\\Front\\Request\\Http -->
<g id="node7" class="node"><title>\\Nf\\Front\\Request\\Http</title>
<polygon fill="none" stroke="black" points="505,-2172 451,-2172 451,-2136 505,-2136 505,-2172"/>
<text text-anchor="middle" x="478" y="-2151.1" font-family="Courier,monospace" font-size="11.00">Http</text>
</g>
<!-- \\Nf\\Front\\Request\\Http&#45;&gt;\\Nf\\Front\\Request\\AbstractRequest -->
<g id="edge39" class="edge"><title>\\Nf\\Front\\Request\\Http&#45;&gt;\\Nf\\Front\\Request\\AbstractRequest</title>
<path fill="none" stroke="black" d="M450.91,-2157.59C423.567,-2161.2 380.218,-2166.94 343.275,-2171.83"/>
<polygon fill="none" stroke="black" points="342.498,-2168.4 333.044,-2173.19 343.417,-2175.34 342.498,-2168.4"/>
</g>
<!-- \\Nf\\Front\\Response\\AbstractResponse -->
<g id="node9" class="node"><title>\\Nf\\Front\\Response\\AbstractResponse</title>
<polygon fill="none" stroke="black" points="337,-2063 211,-2063 211,-2027 337,-2027 337,-2063"/>
<text text-anchor="start" x="240" y="-2050.43" font-family="Courier,monospace" font-size="11.00">«abstract»</text>
<text text-anchor="start" x="219.5" y="-2037.23" font-family="Courier,monospace" font-size="11.00">AbstractResponse</text>
</g>
<!-- \\Nf\\Front\\Response\\Cli -->
<g id="node10" class="node"><title>\\Nf\\Front\\Response\\Cli</title>
<polygon fill="none" stroke="black" points="505,-2090 451,-2090 451,-2054 505,-2054 505,-2090"/>
<text text-anchor="middle" x="478" y="-2069.1" font-family="Courier,monospace" font-size="11.00">Cli</text>
</g>
<!-- \\Nf\\Front\\Response\\Cli&#45;&gt;\\Nf\\Front\\Response\\AbstractResponse -->
<g id="edge25" class="edge"><title>\\Nf\\Front\\Response\\Cli&#45;&gt;\\Nf\\Front\\Response\\AbstractResponse</title>
<path fill="none" stroke="black" d="M450.91,-2068.41C424.558,-2064.93 383.338,-2059.47 347.315,-2054.7"/>
<polygon fill="none" stroke="black" points="347.682,-2051.22 337.309,-2053.38 346.763,-2058.16 347.682,-2051.22"/>
</g>
<!-- \\Nf\\Front\\Response\\Http -->
<g id="node11" class="node"><title>\\Nf\\Front\\Response\\Http</title>
<polygon fill="none" stroke="black" points="505,-2036 451,-2036 451,-2000 505,-2000 505,-2036"/>
<text text-anchor="middle" x="478" y="-2015.1" font-family="Courier,monospace" font-size="11.00">Http</text>
</g>
<!-- \\Nf\\Front\\Response\\Http&#45;&gt;\\Nf\\Front\\Response\\AbstractResponse -->
<g id="edge45" class="edge"><title>\\Nf\\Front\\Response\\Http&#45;&gt;\\Nf\\Front\\Response\\AbstractResponse</title>
<path fill="none" stroke="black" d="M450.91,-2021.59C424.558,-2025.07 383.338,-2030.53 347.315,-2035.3"/>
<polygon fill="none" stroke="black" points="346.763,-2031.84 337.309,-2036.62 347.682,-2038.78 346.763,-2031.84"/>
</g>
<!-- \\Nf\\Front\\Controller -->
<g id="node12" class="node"><title>\\Nf\\Front\\Controller</title>
<polygon fill="none" stroke="black" points="520,-1982 436,-1982 436,-1946 520,-1946 520,-1982"/>
<text text-anchor="middle" x="478" y="-1961.1" font-family="Courier,monospace" font-size="11.00">Controller</text>
</g>
<!-- \\Nf\\Session\\Memcached -->
<g id="node14" class="node"><title>\\Nf\\Session\\Memcached</title>
<polygon fill="none" stroke="black" points="516,-880 440,-880 440,-844 516,-844 516,-880"/>
<text text-anchor="middle" x="478" y="-859.1" font-family="Courier,monospace" font-size="11.00">Memcached</text>
</g>
<!-- \\Nf\\Session -->
<g id="node52" class="node"><title>\\Nf\\Session</title>
<polygon fill="none" stroke="black" points="316,-895 232,-895 232,-859 316,-859 316,-895"/>
<text text-anchor="start" x="240" y="-882.433" font-family="Courier,monospace" font-size="11.00">«abstract»</text>
<text text-anchor="start" x="250" y="-869.233" font-family="Courier,monospace" font-size="11.00">Session</text>
</g>
<!-- \\Nf\\Session\\Memcached&#45;&gt;\\Nf\\Session -->
<g id="edge19" class="edge"><title>\\Nf\\Session\\Memcached&#45;&gt;\\Nf\\Session</title>
<path fill="none" stroke="black" d="M439.149,-864.857C407.268,-867.201 361.818,-870.543 326.666,-873.128"/>
<polygon fill="none" stroke="black" points="326.296,-869.645 316.58,-873.869 326.81,-876.626 326.296,-869.645"/>
</g>
<!-- \\Nf\\Session\\Mysqli -->
<g id="node15" class="node"><title>\\Nf\\Session\\Mysqli</title>
<polygon fill="none" stroke="black" points="506,-826 450,-826 450,-790 506,-790 506,-826"/>
<text text-anchor="middle" x="478" y="-805.1" font-family="Courier,monospace" font-size="11.00">Mysqli</text>
</g>
<!-- \\Nf\\Session\\Mysqli&#45;&gt;\\Nf\\Session -->
<g id="edge57" class="edge"><title>\\Nf\\Session\\Mysqli&#45;&gt;\\Nf\\Session</title>
<path fill="none" stroke="black" d="M449.204,-817.74C417.412,-828.493 365.566,-846.029 326.504,-859.241"/>
<polygon fill="none" stroke="black" points="325.219,-855.981 316.868,-862.501 327.462,-862.612 325.219,-855.981"/>
</g>
<!-- \\Nf\\Db\\Adapter\\Mysqli -->
<g id="node18" class="node"><title>\\Nf\\Db\\Adapter\\Mysqli</title>
<polygon fill="none" stroke="black" points="506,-1826 450,-1826 450,-1790 506,-1790 506,-1826"/>
<text text-anchor="middle" x="478" y="-1805.1" font-family="Courier,monospace" font-size="11.00">Mysqli</text>
</g>
<!-- \\Nf\\Db\\Adapter\\AbstractAdapter -->
<g id="node19" class="node"><title>\\Nf\\Db\\Adapter\\AbstractAdapter</title>
<polygon fill="none" stroke="black" points="333,-1826 215,-1826 215,-1790 333,-1790 333,-1826"/>
<text text-anchor="start" x="240" y="-1813.43" font-family="Courier,monospace" font-size="11.00">«abstract»</text>
<text text-anchor="start" x="223" y="-1800.23" font-family="Courier,monospace" font-size="11.00">AbstractAdapter</text>
</g>
<!-- \\Nf\\Db\\Adapter\\Mysqli&#45;&gt;\\Nf\\Db\\Adapter\\AbstractAdapter -->
<g id="edge21" class="edge"><title>\\Nf\\Db\\Adapter\\Mysqli&#45;&gt;\\Nf\\Db\\Adapter\\AbstractAdapter</title>
<path fill="none" stroke="black" d="M449.204,-1808C421.898,-1808 379.798,-1808 343.71,-1808"/>
<polygon fill="none" stroke="black" points="343.708,-1804.5 333.708,-1808 343.708,-1811.5 343.708,-1804.5"/>
</g>
<!-- \\Nf\\Db\\Resource\\Mysqli -->
<g id="node21" class="node"><title>\\Nf\\Db\\Resource\\Mysqli</title>
<polygon fill="none" stroke="black" points="506,-1744 450,-1744 450,-1708 506,-1708 506,-1744"/>
<text text-anchor="middle" x="478" y="-1723.1" font-family="Courier,monospace" font-size="11.00">Mysqli</text>
</g>
<!-- \\Nf\\Db\\Expression -->
<g id="node22" class="node"><title>\\Nf\\Db\\Expression</title>
<polygon fill="none" stroke="black" points="520,-1690 436,-1690 436,-1654 520,-1654 520,-1690"/>
<text text-anchor="middle" x="478" y="-1669.1" font-family="Courier,monospace" font-size="11.00">Expression</text>
</g>
<!-- \\Nf\\View\\Smarty -->
<g id="node24" class="node"><title>\\Nf\\View\\Smarty</title>
<polygon fill="none" stroke="black" points="506,-744 450,-744 450,-708 506,-708 506,-744"/>
<text text-anchor="middle" x="478" y="-723.1" font-family="Courier,monospace" font-size="11.00">Smarty</text>
</g>
<!-- \\Nf\\View -->
<g id="node46" class="node"><title>\\Nf\\View</title>
<polygon fill="none" stroke="black" points="316,-841 232,-841 232,-805 316,-805 316,-841"/>
<text text-anchor="start" x="240" y="-828.433" font-family="Courier,monospace" font-size="11.00">«abstract»</text>
<text text-anchor="start" x="260" y="-815.233" font-family="Courier,monospace" font-size="11.00">View</text>
</g>
<!-- \\Nf\\View\\Smarty&#45;&gt;\\Nf\\View -->
<g id="edge23" class="edge"><title>\\Nf\\View\\Smarty&#45;&gt;\\Nf\\View</title>
<path fill="none" stroke="black" d="M449.432,-742.728C423.268,-757.693 383.219,-779.717 347,-796 340.391,-798.971 333.348,-801.882 326.342,-804.628"/>
<polygon fill="none" stroke="black" points="324.944,-801.416 316.856,-808.26 327.447,-807.953 324.944,-801.416"/>
</g>
<!-- \\Nf\\View\\Php -->
<g id="node25" class="node"><title>\\Nf\\View\\Php</title>
<polygon fill="none" stroke="black" points="505,-690 451,-690 451,-654 505,-654 505,-690"/>
<text text-anchor="middle" x="478" y="-669.1" font-family="Courier,monospace" font-size="11.00">Php</text>
</g>
<!-- \\Nf\\View\\Php&#45;&gt;\\Nf\\View -->
<g id="edge59" class="edge"><title>\\Nf\\View\\Php&#45;&gt;\\Nf\\View</title>
<path fill="none" stroke="black" d="M450.825,-681.083C440.211,-685.453 428.367,-691.414 419,-699 377.277,-732.79 389.959,-763.797 347,-796 340.69,-800.73 333.463,-804.707 326.066,-808.028"/>
<polygon fill="none" stroke="black" points="324.581,-804.854 316.66,-811.891 327.24,-811.329 324.581,-804.854"/>
</g>
<!-- \\Nf\\Error\\Exception\\Http\\Unauthorized -->
<g id="node29" class="node"><title>\\Nf\\Error\\Exception\\Http\\Unauthorized</title>
<polygon fill="none" stroke="black" points="527,-1504 429,-1504 429,-1468 527,-1468 527,-1504"/>
<text text-anchor="middle" x="478" y="-1483.1" font-family="Courier,monospace" font-size="11.00">Unauthorized</text>
</g>
<!-- \\Nf\\Error\\Exception\\Http -->
<g id="node34" class="node"><title>\\Nf\\Error\\Exception\\Http</title>
<polygon fill="none" stroke="black" points="301,-1369 247,-1369 247,-1333 301,-1333 301,-1369"/>
<text text-anchor="middle" x="274" y="-1348.1" font-family="Courier,monospace" font-size="11.00">Http</text>
</g>
<!-- \\Nf\\Error\\Exception\\Http\\Unauthorized&#45;&gt;\\Nf\\Error\\Exception\\Http -->
<g id="edge35" class="edge"><title>\\Nf\\Error\\Exception\\Http\\Unauthorized&#45;&gt;\\Nf\\Error\\Exception\\Http</title>
<path fill="none" stroke="black" d="M432.96,-1467.98C428.061,-1465.28 423.3,-1462.28 419,-1459 379.36,-1428.77 388.608,-1400.45 347,-1373 336.297,-1365.94 323.241,-1361.07 311.145,-1357.75"/>
<polygon fill="none" stroke="black" points="311.831,-1354.31 301.283,-1355.31 310.149,-1361.11 311.831,-1354.31"/>
</g>
<!-- \\Nf\\Error\\Exception\\Http\\NoContent -->
<g id="node30" class="node"><title>\\Nf\\Error\\Exception\\Http\\NoContent</title>
<polygon fill="none" stroke="black" points="516,-1450 440,-1450 440,-1414 516,-1414 516,-1450"/>
<text text-anchor="middle" x="478" y="-1429.1" font-family="Courier,monospace" font-size="11.00">NoContent</text>
</g>
<!-- \\Nf\\Error\\Exception\\Http\\NoContent&#45;&gt;\\Nf\\Error\\Exception\\Http -->
<g id="edge37" class="edge"><title>\\Nf\\Error\\Exception\\Http\\NoContent&#45;&gt;\\Nf\\Error\\Exception\\Http</title>
<path fill="none" stroke="black" d="M439.496,-1414.35C404.268,-1398.25 356.257,-1376.46 347,-1373 335.493,-1368.7 322.735,-1364.62 311.145,-1361.17"/>
<polygon fill="none" stroke="black" points="311.901,-1357.75 301.321,-1358.32 309.946,-1364.47 311.901,-1357.75"/>
</g>
<!-- \\Nf\\Error\\Exception\\Http\\NotFound -->
<g id="node31" class="node"><title>\\Nf\\Error\\Exception\\Http\\NotFound</title>
<polygon fill="none" stroke="black" points="513,-1396 443,-1396 443,-1360 513,-1360 513,-1396"/>
<text text-anchor="middle" x="478" y="-1375.1" font-family="Courier,monospace" font-size="11.00">NotFound</text>
</g>
<!-- \\Nf\\Error\\Exception\\Http\\NotFound&#45;&gt;\\Nf\\Error\\Exception\\Http -->
<g id="edge51" class="edge"><title>\\Nf\\Error\\Exception\\Http\\NotFound&#45;&gt;\\Nf\\Error\\Exception\\Http</title>
<path fill="none" stroke="black" d="M442.466,-1373.3C405.737,-1368.44 348.641,-1360.88 311.281,-1355.93"/>
<polygon fill="none" stroke="black" points="311.673,-1352.46 301.301,-1354.61 310.755,-1359.4 311.673,-1352.46"/>
</g>
<!-- \\Nf\\Error\\Exception\\Http\\BadRequest -->
<g id="node32" class="node"><title>\\Nf\\Error\\Exception\\Http\\BadRequest</title>
<polygon fill="none" stroke="black" points="520,-1342 436,-1342 436,-1306 520,-1306 520,-1342"/>
<text text-anchor="middle" x="478" y="-1321.1" font-family="Courier,monospace" font-size="11.00">BadRequest</text>
</g>
<!-- \\Nf\\Error\\Exception\\Http\\BadRequest&#45;&gt;\\Nf\\Error\\Exception\\Http -->
<g id="edge55" class="edge"><title>\\Nf\\Error\\Exception\\Http\\BadRequest&#45;&gt;\\Nf\\Error\\Exception\\Http</title>
<path fill="none" stroke="black" d="M435.731,-1329.59C399.137,-1334.44 346.705,-1341.38 311.56,-1346.03"/>
<polygon fill="none" stroke="black" points="310.699,-1342.61 301.245,-1347.39 311.617,-1349.55 310.699,-1342.61"/>
</g>
<!-- \\Nf\\Error\\Exception\\Http\\Forbidden -->
<g id="node33" class="node"><title>\\Nf\\Error\\Exception\\Http\\Forbidden</title>
<polygon fill="none" stroke="black" points="516,-1288 440,-1288 440,-1252 516,-1252 516,-1288"/>
<text text-anchor="middle" x="478" y="-1267.1" font-family="Courier,monospace" font-size="11.00">Forbidden</text>
</g>
<!-- \\Nf\\Error\\Exception\\Http\\Forbidden&#45;&gt;\\Nf\\Error\\Exception\\Http -->
<g id="edge63" class="edge"><title>\\Nf\\Error\\Exception\\Http\\Forbidden&#45;&gt;\\Nf\\Error\\Exception\\Http</title>
<path fill="none" stroke="black" d="M439.149,-1285.43C402.271,-1300.07 347.235,-1321.92 310.985,-1336.31"/>
<polygon fill="none" stroke="black" points="309.292,-1333.22 301.29,-1340.16 311.876,-1339.73 309.292,-1333.22"/>
</g>
<!-- \\Exception -->
<g id="node66" class="node"><title>\\Exception</title>
<ellipse fill="none" stroke="black" cx="67" cy="-18" rx="61.8445" ry="18"/>
<text text-anchor="middle" x="67" y="-13.9" font-family="Times Roman,serif" font-size="14.00" fill="gray">\Exception</text>
</g>
<!-- \\Nf\\Error\\Exception\\Http&#45;&gt;\\Exception -->
<g id="edge31" class="edge"><title>\\Nf\\Error\\Exception\\Http&#45;&gt;\\Exception</title>
<path fill="none" stroke="black" d="M267.96,-1332.94C252.743,-1286.57 212.779,-1159.32 195,-1050 177.09,-939.872 191.349,-140.528 129,-48 126.068,-43.6491 122.32,-39.9084 118.122,-36.6965"/>
<polygon fill="none" stroke="black" points="119.881,-33.6658 109.589,-31.1503 116.066,-39.5349 119.881,-33.6658"/>
</g>
<!-- \\Nf\\Error\\Exception\\ClientException -->
<g id="node35" class="node"><title>\\Nf\\Error\\Exception\\ClientException</title>
<polygon fill="none" stroke="black" points="537,-1234 419,-1234 419,-1198 537,-1198 537,-1234"/>
<text text-anchor="middle" x="478" y="-1213.1" font-family="Courier,monospace" font-size="11.00">ClientException</text>
</g>
<!-- \\Nf\\Error\\Exception\\ClientException&#45;&gt;\\Exception -->
<g id="edge33" class="edge"><title>\\Nf\\Error\\Exception\\ClientException&#45;&gt;\\Exception</title>
<path fill="none" stroke="black" d="M431.161,-1197.8C426.524,-1194.46 422.316,-1190.55 419,-1186 299.98,-1022.66 487.716,-882.071 347,-737 323.999,-713.287 285.84,-753.841 274,-723"/>
</g>
<!-- \\Nf\\Error\\Logger\\Gelf -->
<g id="node37" class="node"><title>\\Nf\\Error\\Logger\\Gelf</title>
<polygon fill="none" stroke="black" points="505,-1152 451,-1152 451,-1116 505,-1116 505,-1152"/>
<text text-anchor="middle" x="478" y="-1131.1" font-family="Courier,monospace" font-size="11.00">Gelf</text>
</g>
<!-- \\Nf\\Error\\Handler -->
<g id="node38" class="node"><title>\\Nf\\Error\\Handler</title>
<polygon fill="none" stroke="black" points="510,-1098 446,-1098 446,-1062 510,-1062 510,-1098"/>
<text text-anchor="middle" x="478" y="-1077.1" font-family="Courier,monospace" font-size="11.00">Handler</text>
</g>
<!-- \\Nf\\Error\\Handler&#45;&gt;\\Exception -->
<g id="edge27" class="edge"><title>\\Nf\\Error\\Handler&#45;&gt;\\Exception</title>
<path fill="none" stroke="black" d="M445.935,-1069.82C435.995,-1065.22 425.863,-1058.78 419,-1050 331.116,-937.518 449.766,-836.071 347,-737 323.216,-714.072 285.84,-753.841 274,-723"/>
<path fill="none" stroke="black" d="M274,-723C164.027,-436.541 318.55,-289.296 129,-48 125.714,-43.817 121.698,-40.1818 117.305,-37.0305"/>
<polygon fill="none" stroke="black" points="118.825,-33.8547 108.484,-31.5497 115.131,-39.8004 118.825,-33.8547"/>
</g>
<!-- \\Nf\\Cache\\Apc -->
<g id="node40" class="node"><title>\\Nf\\Cache\\Apc</title>
<polygon fill="none" stroke="black" points="505,-1016 451,-1016 451,-980 505,-980 505,-1016"/>
<text text-anchor="middle" x="478" y="-995.1" font-family="Courier,monospace" font-size="11.00">Apc</text>
</g>
<!-- \\Nf\\Cache\\CacheInterface -->
<g id="node42" class="node"><title>\\Nf\\Cache\\CacheInterface</title>
<polygon fill="none" stroke="black" points="329,-989 219,-989 219,-953 329,-953 329,-989"/>
<text text-anchor="middle" x="274" y="-968.1" font-family="Courier,monospace" font-size="11.00">CacheInterface</text>
</g>
<!-- \\Nf\\Cache\\Apc&#45;&gt;\\Nf\\Cache\\CacheInterface -->
<g id="edge47" class="edge"><title>\\Nf\\Cache\\Apc&#45;&gt;\\Nf\\Cache\\CacheInterface</title>
<path fill="none" stroke="black" stroke-dasharray="1,5" d="M450.91,-994.415C422.775,-990.691 377.692,-984.724 340.079,-979.746"/>
<polygon fill="none" stroke="black" points="340.062,-976.213 329.689,-978.371 339.143,-983.153 340.062,-976.213"/>
</g>
<!-- \\Nf\\Cache\\Memcached -->
<g id="node41" class="node"><title>\\Nf\\Cache\\Memcached</title>
<polygon fill="none" stroke="black" points="516,-962 440,-962 440,-926 516,-926 516,-962"/>
<text text-anchor="middle" x="478" y="-941.1" font-family="Courier,monospace" font-size="11.00">Memcached</text>
</g>
<!-- \\Nf\\Cache\\Memcached&#45;&gt;\\Nf\\Cache\\CacheInterface -->
<g id="edge53" class="edge"><title>\\Nf\\Cache\\Memcached&#45;&gt;\\Nf\\Cache\\CacheInterface</title>
<path fill="none" stroke="black" stroke-dasharray="1,5" d="M439.149,-949.142C411.072,-952.858 372.47,-957.967 339.647,-962.311"/>
<polygon fill="none" stroke="black" points="339.118,-958.851 329.664,-963.633 340.037,-965.79 339.118,-958.851"/>
</g>
<!-- \\Nf\\Input -->
<g id="node43" class="node"><title>\\Nf\\Input</title>
<polygon fill="none" stroke="black" points="505,-636 451,-636 451,-600 505,-600 505,-636"/>
<text text-anchor="middle" x="478" y="-615.1" font-family="Courier,monospace" font-size="11.00">Input</text>
</g>
<!-- \\Nf\\Bootstrap -->
<g id="node44" class="node"><title>\\Nf\\Bootstrap</title>
<polygon fill="none" stroke="black" points="516,-582 440,-582 440,-546 516,-546 516,-582"/>
<text text-anchor="middle" x="478" y="-561.1" font-family="Courier,monospace" font-size="11.00">Bootstrap</text>
</g>
<!-- \\Nf\\Singleton -->
<g id="node45" class="node"><title>\\Nf\\Singleton</title>
<polygon fill="none" stroke="black" points="109,-895 25,-895 25,-859 109,-859 109,-895"/>
<text text-anchor="start" x="33" y="-882.433" font-family="Courier,monospace" font-size="11.00">«abstract»</text>
<text text-anchor="start" x="36.5" y="-869.233" font-family="Courier,monospace" font-size="11.00">Singleton</text>
</g>
<!-- \\Nf\\View&#45;&gt;\\Nf\\Singleton -->
<g id="edge29" class="edge"><title>\\Nf\\View&#45;&gt;\\Nf\\Singleton</title>
<path fill="none" stroke="black" d="M231.36,-834.123C198.937,-842.582 154.154,-854.264 119.522,-863.299"/>
<polygon fill="none" stroke="black" points="118.377,-859.98 109.584,-865.891 120.144,-866.753 118.377,-859.98"/>
</g>
<!-- \\Nf\\Db -->
<g id="node47" class="node"><title>\\Nf\\Db</title>
<polygon fill="none" stroke="black" points="505,-528 451,-528 451,-492 505,-492 505,-528"/>
<text text-anchor="middle" x="478" y="-507.1" font-family="Courier,monospace" font-size="11.00">Db</text>
</g>
<!-- \\Nf\\Date -->
<g id="node48" class="node"><title>\\Nf\\Date</title>
<polygon fill="none" stroke="black" points="520,-474 436,-474 436,-438 520,-438 520,-474"/>
<text text-anchor="start" x="444" y="-461.433" font-family="Courier,monospace" font-size="11.00">«abstract»</text>
<text text-anchor="start" x="464" y="-448.233" font-family="Courier,monospace" font-size="11.00">Date</text>
</g>
<!-- \\Nf\\Cache -->
<g id="node49" class="node"><title>\\Nf\\Cache</title>
<polygon fill="none" stroke="black" points="520,-420 436,-420 436,-384 520,-384 520,-420"/>
<text text-anchor="start" x="444" y="-407.433" font-family="Courier,monospace" font-size="11.00">«abstract»</text>
<text text-anchor="start" x="461" y="-394.233" font-family="Courier,monospace" font-size="11.00">Cache</text>
</g>
<!-- \\Nf\\Autoloader -->
<g id="node50" class="node"><title>\\Nf\\Autoloader</title>
<polygon fill="none" stroke="black" points="520,-366 436,-366 436,-330 520,-330 520,-366"/>
<text text-anchor="middle" x="478" y="-345.1" font-family="Courier,monospace" font-size="11.00">Autoloader</text>
</g>
<!-- \\Nf\\UserAgent -->
<g id="node51" class="node"><title>\\Nf\\UserAgent</title>
<polygon fill="none" stroke="black" points="516,-312 440,-312 440,-276 516,-276 516,-312"/>
<text text-anchor="middle" x="478" y="-291.1" font-family="Courier,monospace" font-size="11.00">UserAgent</text>
</g>
<!-- \\Nf\\Session&#45;&gt;\\Nf\\Singleton -->
<g id="edge41" class="edge"><title>\\Nf\\Session&#45;&gt;\\Nf\\Singleton</title>
<path fill="none" stroke="black" d="M231.36,-877C199.076,-877 154.539,-877 119.968,-877"/>
<polygon fill="none" stroke="black" points="119.584,-873.5 109.584,-877 119.584,-880.5 119.584,-873.5"/>
</g>
<!-- \\Nf\\Front -->
<g id="node53" class="node"><title>\\Nf\\Front</title>
<polygon fill="none" stroke="black" points="301,-1930 247,-1930 247,-1894 301,-1894 301,-1930"/>
<text text-anchor="middle" x="274" y="-1909.1" font-family="Courier,monospace" font-size="11.00">Front</text>
</g>
<!-- \\Nf\\Front&#45;&gt;\\Nf\\Singleton -->
<g id="edge43" class="edge"><title>\\Nf\\Front&#45;&gt;\\Nf\\Singleton</title>
<path fill="none" stroke="black" d="M246.78,-1901.28C229.036,-1892.82 207.018,-1879.21 195,-1860 91.3566,-1694.34 70.8692,-1049.1 67.5633,-905.451"/>
<polygon fill="none" stroke="black" points="71.0584,-905.183 67.3388,-895.262 64.0601,-905.337 71.0584,-905.183"/>
</g>
<!-- \\Nf\\File -->
<g id="node54" class="node"><title>\\Nf\\File</title>
<polygon fill="none" stroke="black" points="520,-258 436,-258 436,-222 520,-222 520,-258"/>
<text text-anchor="start" x="444" y="-245.433" font-family="Courier,monospace" font-size="11.00">«abstract»</text>
<text text-anchor="start" x="464" y="-232.233" font-family="Courier,monospace" font-size="11.00">File</text>
</g>
<!-- \\Nf\\Localization -->
<g id="node55" class="node"><title>\\Nf\\Localization</title>
<polygon fill="none" stroke="black" points="323,-1638 225,-1638 225,-1602 323,-1602 323,-1638"/>
<text text-anchor="middle" x="274" y="-1617.1" font-family="Courier,monospace" font-size="11.00">Localization</text>
</g>
<!-- \\Nf\\Localization&#45;&gt;\\Nf\\Singleton -->
<g id="edge49" class="edge"><title>\\Nf\\Localization&#45;&gt;\\Nf\\Singleton</title>
<path fill="none" stroke="black" d="M233.508,-1601.82C219.251,-1593.48 204.443,-1582.23 195,-1568 120.331,-1455.49 79.0892,-1020.9 69.2952,-905.352"/>
<polygon fill="none" stroke="black" points="72.7664,-904.861 68.4455,-895.188 65.7908,-905.444 72.7664,-904.861"/>
</g>
<!-- \\Nf\\Ini -->
<g id="node56" class="node"><title>\\Nf\\Ini</title>
<polygon fill="none" stroke="black" points="505,-204 451,-204 451,-168 505,-168 505,-204"/>
<text text-anchor="middle" x="478" y="-183.1" font-family="Courier,monospace" font-size="11.00">Ini</text>
</g>
<!-- \\Nf\\LabelManager -->
<g id="node57" class="node"><title>\\Nf\\LabelManager</title>
<polygon fill="none" stroke="black" points="323,-787 225,-787 225,-751 323,-751 323,-787"/>
<text text-anchor="middle" x="274" y="-766.1" font-family="Courier,monospace" font-size="11.00">LabelManager</text>
</g>
<!-- \\Nf\\LabelManager&#45;&gt;\\Nf\\Singleton -->
<g id="edge61" class="edge"><title>\\Nf\\LabelManager&#45;&gt;\\Nf\\Singleton</title>
<path fill="none" stroke="black" d="M224.608,-782.474C214.48,-786.165 204.132,-790.657 195,-796 161.041,-815.87 162.843,-834.933 129,-855 125.816,-856.888 122.445,-858.65 118.985,-860.289"/>
<polygon fill="none" stroke="black" points="117.457,-857.136 109.686,-864.337 120.251,-863.554 117.457,-857.136"/>
</g>
<!-- \\Nf\\Registry -->
<g id="node58" class="node"><title>\\Nf\\Registry</title>
<polygon fill="none" stroke="black" points="513,-150 443,-150 443,-114 513,-114 513,-150"/>
<text text-anchor="middle" x="478" y="-129.1" font-family="Courier,monospace" font-size="11.00">Registry</text>
</g>
<!-- \\ArrayObject -->
<g id="node86" class="node"><title>\\ArrayObject</title>
<ellipse fill="none" stroke="black" cx="274" cy="-18" rx="71.7694" ry="18"/>
<text text-anchor="middle" x="274" y="-13.9" font-family="Times Roman,serif" font-size="14.00" fill="gray">\ArrayObject</text>
</g>
<!-- \\Nf\\Registry&#45;&gt;\\ArrayObject -->
<g id="edge65" class="edge"><title>\\Nf\\Registry&#45;&gt;\\ArrayObject</title>
<path fill="none" stroke="black" d="M442.435,-116.499C434.634,-112.885 426.475,-108.937 419,-105 380.396,-84.6661 337.743,-58.6185 308.754,-40.3454"/>
<polygon fill="none" stroke="black" points="310.537,-37.3317 300.216,-34.9389 306.792,-43.2458 310.537,-37.3317"/>
</g>
<!-- \\Nf\\Image -->
<g id="node59" class="node"><title>\\Nf\\Image</title>
<polygon fill="none" stroke="black" points="520,-96 436,-96 436,-60 520,-60 520,-96"/>
<text text-anchor="start" x="444" y="-83.4333" font-family="Courier,monospace" font-size="11.00">«abstract»</text>
<text text-anchor="start" x="461" y="-70.2333" font-family="Courier,monospace" font-size="11.00">Image</text>
</g>
</g>
</svg>
